<?xml version="1.0" encoding="UTF-8" standalone="no"?>
<!-- Created with Inkscape (http://www.inkscape.org/) -->

<svg
   xmlns:dc="http://purl.org/dc/elements/1.1/"
   xmlns:cc="http://creativecommons.org/ns#"
   xmlns:rdf="http://www.w3.org/1999/02/22-rdf-syntax-ns#"
   xmlns:svg="http://www.w3.org/2000/svg"
   xmlns="http://www.w3.org/2000/svg"
   xmlns:sodipodi="http://sodipodi.sourceforge.net/DTD/sodipodi-0.dtd"
   xmlns:inkscape="http://www.inkscape.org/namespaces/inkscape"
   width="85"
   height="85"
   viewBox="0 0 22.489582 22.489584"
   version="1.1"
   id="svg3770"
   inkscape:version="0.92.3 (2405546, 2018-03-11)"
   sodipodi:docname="logo.svg">
  <defs
     id="defs3764" />
  <sodipodi:namedview
     id="base"
     pagecolor="#ffffff"
     bordercolor="#666666"
     borderopacity="1.0"
     inkscape:pageopacity="0.0"
     inkscape:pageshadow="2"
     inkscape:zoom="2.8"
     inkscape:cx="-46.642694"
     inkscape:cy="107.67016"
     inkscape:document-units="mm"
     inkscape:current-layer="layer1"
     showgrid="false"
     inkscape:window-width="1045"
     inkscape:window-height="791"
     inkscape:window-x="1089"
     inkscape:window-y="138"
     inkscape:window-maximized="0"
     units="px" />
  <metadata
     id="metadata3767">
    <rdf:RDF>
      <cc:Work
         rdf:about="">
        <dc:format>image/svg+xml</dc:format>
        <dc:type
           rdf:resource="http://purl.org/dc/dcmitype/StillImage" />
        <dc:title></dc:title>
      </cc:Work>
    </rdf:RDF>
  </metadata>
  <g
     inkscape:label="Layer 1"
     inkscape:groupmode="layer"
     id="layer1"
     transform="translate(0,-274.5104)">
    <g
       id="g3824"
       transform="matrix(0.28111979,0,0,0.28111979,0,274.51041)">
      <path
         id="path3822"
         d="M 40,0 C 62.091,0 80,17.909 80,40 80,62.091 62.091,80 40,80 17.909,80 0,62.091 0,40 0,17.909 17.909,0 40,0 Z"
         inkscape:connector-curvature="0"
         style="fill:#ffffff" />
    </g>
    <g
       id="g3843"
       transform="matrix(0.02521925,0,0,0.0252193,4.6566667,279.16704)">
      <g
         id="g3841">
        <path
           id="path3835"
           d="m 325.762,70.513 -17.706,-4.854 c -2.279,-0.76 -4.524,-0.521 -6.707,0.715 -2.19,1.237 -3.669,3.094 -4.429,5.568 L 190.426,440.53 c -0.76,2.475 -0.522,4.809 0.715,6.995 1.237,2.19 3.09,3.665 5.568,4.425 l 17.701,4.856 c 2.284,0.766 4.521,0.526 6.71,-0.712 2.19,-1.243 3.666,-3.094 4.425,-5.564 L 332.042,81.936 c 0.759,-2.474 0.523,-4.808 -0.716,-6.999 -1.238,-2.19 -3.089,-3.665 -5.564,-4.424 z"
           inkscape:connector-curvature="0"
           style="fill:#8cc9f0" />
        <path
           id="path3837"
           d="m 166.167,142.465 c 0,-2.474 -0.953,-4.665 -2.856,-6.567 l -14.277,-14.276 c -1.903,-1.903 -4.093,-2.857 -6.567,-2.857 -2.474,0 -4.665,0.955 -6.567,2.857 L 2.856,254.666 C 0.95,256.569 0,258.759 0,261.233 c 0,2.474 0.953,4.664 2.856,6.566 l 133.043,133.044 c 1.902,1.906 4.089,2.854 6.567,2.854 2.478,0 4.665,-0.951 6.567,-2.854 l 14.277,-14.268 c 1.903,-1.902 2.856,-4.093 2.856,-6.57 0,-2.471 -0.953,-4.661 -2.856,-6.563 L 51.107,261.233 163.311,149.032 c 1.906,-1.902 2.856,-4.093 2.856,-6.567 z"
           inkscape:connector-curvature="0"
           style="fill:#8cc9f0" />
        <path
           id="path3839"
           d="M 519.614,254.663 386.567,121.619 c -1.902,-1.902 -4.093,-2.857 -6.563,-2.857 -2.478,0 -4.661,0.955 -6.57,2.857 l -14.271,14.275 c -1.902,1.903 -2.851,4.09 -2.851,6.567 0,2.477 0.948,4.665 2.851,6.567 l 112.206,112.204 -112.206,112.21 c -1.902,1.902 -2.851,4.093 -2.851,6.563 0,2.478 0.948,4.668 2.851,6.57 l 14.271,14.268 c 1.909,1.906 4.093,2.854 6.57,2.854 2.471,0 4.661,-0.951 6.563,-2.854 L 519.614,267.8 c 1.903,-1.902 2.854,-4.096 2.854,-6.57 0,-2.475 -0.951,-4.665 -2.854,-6.567 z"
           inkscape:connector-curvature="0"
           style="fill:#8cc9f0" />
      </g>
    </g>
  </g>
</svg>
